<svg id="Calque_1" data-name="Calque 1" xmlns="http://www.w3.org/2000/svg" viewBox="0 0 417.97 202.76"><defs><style>.cls-1{fill:#1d1d1b;}.cls-2{fill:#fecd3f;}</style></defs><path class="cls-1" d="M379.12,44h24.51v82.75H379.12Zm-54.31,67.11a19.15,19.15,0,0,0,14.8-6.56q5.94-6.57,5.94-17.16,0-26.91-20.55-26.91-21.12,0-21.12,25.57,0,11.1,5.84,18.08a18.79,18.79,0,0,0,15.09,7m20.37,15.64L345,116.67q-8.49,12.27-25.84,12.27a42.31,42.31,0,0,1-16.21-3,35.24,35.24,0,0,1-12.64-8.75,41,41,0,0,1-8.3-14,54,54,0,0,1-3-18.67,55.4,55.4,0,0,1,2.54-17.24A39.28,39.28,0,0,1,289,53.76a33.19,33.19,0,0,1,12-8.83,39.69,39.69,0,0,1,16.12-3.11q17.16,0,27.53,13v-41h24.14v113Zm-97.31,0V115.15Q238.44,129,219,128.94a35.73,35.73,0,0,1-12.73-2.18,28.51,28.51,0,0,1-9.9-6.23,29.1,29.1,0,0,1-6.51-9.58,31.58,31.58,0,0,1-2.35-12.45V44H212V95.14q0,15.47,15.66,15.47,9.42,0,14.23-5.3t4.81-13.54V44h24.33v82.75Zm-69.75-.51a47.55,47.55,0,0,1-16.88,2.69,49.6,49.6,0,0,1-17.35-2.69A33,33,0,0,1,132.11,119a26.78,26.78,0,0,1-6.7-10.6,39.18,39.18,0,0,1-2.07-12.78v-74h24.14V44h31.19V59.48H147.48v34q0,7.91,3.3,12.19t10.84,4.29M88.45,48.05q-.95-8.58-7-12.79t-18.1-4.2q-22.24,0-22.25,13.62,0,4.88,4.62,8.16t14.8,5.47Q72.62,60.83,81.47,63a131.75,131.75,0,0,1,16.22,5.05,42.86,42.86,0,0,1,7.83,3.78,22.85,22.85,0,0,1,6.22,5.64,26.79,26.79,0,0,1,4.06,8.07A38.06,38.06,0,0,1,117.3,97a26.94,26.94,0,0,1-3.77,14.29,33.44,33.44,0,0,1-10.18,10.52,49.66,49.66,0,0,1-15.09,6.55A71.66,71.66,0,0,1,70,130.63q-27.34,0-41.11-9.42T14.34,93.29H39.61q.18,8.58,7.83,13.54t19.14,5q12.44,0,18.85-4t6.42-10.93a15.73,15.73,0,0,0-.76-5,9.25,9.25,0,0,0-2.92-4.12,20,20,0,0,0-5.94-3.28,63,63,0,0,0-9.81-2.61q-14.33-2.68-24.8-5.47a66,66,0,0,1-17.25-6.89,26.75,26.75,0,0,1-10-10q-3.21-5.88-3.21-15A30.19,30.19,0,0,1,20,31.56a28.11,28.11,0,0,1,8.67-10.51A45.4,45.4,0,0,1,43.1,14a70,70,0,0,1,20.27-2.61A73.56,73.56,0,0,1,83.74,14a48.56,48.56,0,0,1,15.55,7.4A33.86,33.86,0,0,1,109.38,33a35.36,35.36,0,0,1,4,15.06Z"/><polygon class="cls-2" points="374.08 18.72 392.97 37.61 399.88 11.8 374.08 18.72"/><path class="cls-1" d="M15.46,184.58v-23.8h8.21c3.68,0,6.48,1,8.38,3s2.86,5,2.86,8.89-.95,6.82-2.85,8.84-4.7,3-8.39,3Zm4.28-3.85h3.92q3.7,0,5.34-1.88t1.63-6.15q0-4.3-1.63-6.19t-5.34-1.88H19.74Z"/><path class="cls-1" d="M43,184.58v-23.8h4.28v23.8Z"/><path class="cls-1" d="M55.13,172.7a17.59,17.59,0,0,1,.68-5.14A10.57,10.57,0,0,1,57.56,164a8.65,8.65,0,0,1,2.59-2.14,10.47,10.47,0,0,1,3-1.11,16.16,16.16,0,0,1,3.12-.28,22.47,22.47,0,0,1,8.11,1.62v3.93a19.67,19.67,0,0,0-7.69-1.7,13.07,13.07,0,0,0-2.21.16,6.32,6.32,0,0,0-1.94.67,4.78,4.78,0,0,0-1.62,1.41A7.26,7.26,0,0,0,59.83,169a14,14,0,0,0-.41,3.64,14.2,14.2,0,0,0,.41,3.68,7.26,7.26,0,0,0,1.05,2.43,4.65,4.65,0,0,0,1.62,1.4,6.35,6.35,0,0,0,1.94.68,14.58,14.58,0,0,0,2.21.15,16.31,16.31,0,0,0,4.21-.6v-5.67H65.6V171h9.55v11.87a19.68,19.68,0,0,1-8.66,2h-.07a17.47,17.47,0,0,1-3.17-.28,10.81,10.81,0,0,1-3-1.11,8.93,8.93,0,0,1-2.63-2.13,10.16,10.16,0,0,1-1.78-3.52A17.38,17.38,0,0,1,55.13,172.7Z"/><path class="cls-1" d="M83.4,184.58v-23.8h4.29v23.8Z"/><path class="cls-1" d="M94.55,165.07v-4.29h19.51v4.29h-7.63v19.51h-4.28V165.07Z"/><path class="cls-1" d="M116.3,184.58l9.46-23.8h4.71l9.46,23.8h-4.6l-2.18-5.75H123.08l-2.18,5.75Zm8.24-9.6h7.11l-3.54-9.34Z"/><path class="cls-1" d="M146.72,184.58v-23.8H151v19.75h11.45v4.05Z"/><path class="cls-1" d="M184.06,184.58v-23.8h15.83v3.85H188.34v6h10v4h-10v6h11.55v3.85Z"/><path class="cls-1" d="M207.64,184.58v-23.8h8.22c3.68,0,6.48,1,8.38,3s2.86,5,2.86,8.89-.95,6.82-2.85,8.84-4.7,3-8.39,3Zm4.29-3.85h3.92q3.71,0,5.34-1.88c1.08-1.26,1.63-3.31,1.63-6.15s-.55-4.93-1.63-6.19-2.87-1.88-5.34-1.88h-3.92Z"/><path class="cls-1" d="M234.9,174.51V160.78h4.29v14.09a6.57,6.57,0,0,0,1.36,4.6,5.61,5.61,0,0,0,4.32,1.47,5.68,5.68,0,0,0,4.33-1.47,6.57,6.57,0,0,0,1.36-4.6V160.78h4.29v13.73c0,3.28-.88,5.83-2.62,7.64a9.81,9.81,0,0,1-7.37,2.71c-3.17,0-5.62-.91-7.35-2.71S234.9,177.79,234.9,174.51Z"/><path class="cls-1" d="M263.69,177.8a20.05,20.05,0,0,1,0-10.28,10.49,10.49,0,0,1,1.76-3.53,8.64,8.64,0,0,1,2.58-2.14,10.13,10.13,0,0,1,3-1.1,16.24,16.24,0,0,1,3.12-.28,19.47,19.47,0,0,1,7.21,1.41v4a16.21,16.21,0,0,0-6.82-1.56,11.53,11.53,0,0,0-2.75.28,6.38,6.38,0,0,0-2.23,1.11,5,5,0,0,0-1.65,2.56,17.19,17.19,0,0,0,0,8.78,5,5,0,0,0,1.65,2.56,6.22,6.22,0,0,0,2.23,1.11,11.53,11.53,0,0,0,2.75.28,16.21,16.21,0,0,0,6.82-1.56v4a19.3,19.3,0,0,1-7.21,1.43,17.08,17.08,0,0,1-3.12-.28,10.47,10.47,0,0,1-3-1.11,8.64,8.64,0,0,1-2.58-2.14A10.39,10.39,0,0,1,263.69,177.8Z"/><path class="cls-1" d="M287.31,184.58l9.46-23.8h4.71l9.46,23.8h-4.6l-2.18-5.75H294.09l-2.18,5.75Zm8.24-9.6h7.11l-3.53-9.34Z"/><path class="cls-1" d="M312.5,165.07v-4.29H332v4.29h-7.63v19.51H320.1V165.07Z"/><path class="cls-1" d="M338.7,184.58v-23.8H343v23.8Z"/><path class="cls-1" d="M351,172.68a17.23,17.23,0,0,1,.68-5.13,10.21,10.21,0,0,1,1.75-3.53,8.79,8.79,0,0,1,2.58-2.14,10.38,10.38,0,0,1,3-1.1,17.47,17.47,0,0,1,6.23,0,10.32,10.32,0,0,1,3,1.1,9.18,9.18,0,0,1,2.61,2.14,10.21,10.21,0,0,1,1.76,3.53,17.23,17.23,0,0,1,.68,5.13,17.42,17.42,0,0,1-.68,5.13,10,10,0,0,1-1.76,3.53,9,9,0,0,1-2.61,2.13,10.36,10.36,0,0,1-3,1.11,17.47,17.47,0,0,1-6.23,0,10.41,10.41,0,0,1-3-1.11,8.6,8.6,0,0,1-2.58-2.13,10,10,0,0,1-1.75-3.53A17.42,17.42,0,0,1,351,172.68Zm4.28,0a15.76,15.76,0,0,0,.53,4.44,5.11,5.11,0,0,0,1.57,2.58,5.93,5.93,0,0,0,2.13,1.12,9.76,9.76,0,0,0,2.58.29,12.79,12.79,0,0,0,2.11-.15,6.29,6.29,0,0,0,1.83-.67,4.12,4.12,0,0,0,1.53-1.43,8,8,0,0,0,1-2.47,18.16,18.16,0,0,0-.14-8.1,5,5,0,0,0-1.59-2.59,5.91,5.91,0,0,0-2.12-1.1,10.37,10.37,0,0,0-2.61-.28,11.46,11.46,0,0,0-2.07.16,5.93,5.93,0,0,0-1.84.68,4.2,4.2,0,0,0-1.53,1.4,8.45,8.45,0,0,0-1,2.44A15.21,15.21,0,0,0,355.26,172.64Z"/><path class="cls-1" d="M381.08,184.58v-23.8h4.86l12.22,17.63V160.78h4.29v23.8h-4.79l-12.3-17.77v17.77Z"/></svg>